<svg width="220" height="403" viewBox="0 0 220 403" fill="none" xmlns="http://www.w3.org/2000/svg">
<mask id="mask0" mask-type="alpha" maskUnits="userSpaceOnUse" x="0" y="0" width="220" height="403">
<rect width="220" height="403" transform="matrix(1 0 0 -1 0 403)" fill="#C4C4C4"/>
</mask>
<g mask="url(#mask0)">
<path d="M220 110.676C220 171.798 170.747 221.351 109.995 221.351C49.2421 221.34 0 171.787 0 110.676C0 49.5531 49.2421 0 110.005 0C170.747 0 220 49.5531 220 110.676Z" fill="#F49A00"/>
<path d="M110.005 55.7955C113.985 55.7955 113.996 49.5752 110.005 49.5752C106.026 49.5752 106.026 55.7955 110.005 55.7955Z" fill="#13120D"/>
<path d="M127.687 63.7033C131.667 63.7033 131.667 57.483 127.687 57.483C123.708 57.483 123.697 63.7033 127.687 63.7033Z" fill="#13120D"/>
<path d="M115.574 306.958C144.679 306.958 172.555 281.217 171.207 250.986C169.859 220.657 146.761 195.014 115.574 195.014C86.4695 195.014 58.5927 220.756 59.941 250.986C61.2894 281.305 84.3867 306.958 115.574 306.958Z" fill="#F49A00"/>
<path d="M104.722 393.414C133.826 393.414 161.703 367.673 160.355 337.442C159.006 307.113 135.909 281.47 104.722 281.47C75.617 281.47 47.7402 307.223 49.0885 337.442C50.4369 367.772 73.5342 393.414 104.722 393.414Z" fill="#F49A00"/>
<path d="M108.065 437.067C137.17 437.067 165.047 411.325 163.698 381.095C162.35 350.765 139.253 325.123 108.065 325.123C78.9607 325.123 51.0839 350.865 52.4323 381.095C53.7806 411.425 76.867 437.067 108.065 437.067Z" fill="#F49A00"/>
<path d="M56.6527 205.282C44.956 218.517 35.693 233.792 31.2314 251.074C26.3094 270.143 27.5152 288.904 30.2448 308.138C34.3995 337.365 42.9171 364.651 56.1704 391.076C63.8329 406.362 86.4698 411.943 100.567 402.789C116.09 392.719 120.409 374.455 112.209 358.111C110.4 354.504 108.767 350.82 107.002 347.192C110.017 353.412 106.278 345.35 105.961 344.534C103.834 338.997 101.948 333.35 100.304 327.649C97.5745 318.219 95.6671 308.635 94.0666 298.951C93.7377 296.988 91.063 287.977 93.4527 295.367C92.7402 293.139 92.8498 289.499 92.7073 287.172C92.4881 283.533 92.4223 279.871 92.5867 276.231C92.6744 274.169 91.8084 266.702 92.6087 273.937C92.3456 271.522 93.8583 268.048 94.5709 265.677C95.1299 263.813 95.7658 261.971 96.4783 260.162C95.2177 263.294 95.3821 263.195 96.9716 259.853C98.3638 257.593 99.7012 255.31 101.115 253.06C103.286 250.038 102.946 250.446 100.096 254.273C100.885 253.313 101.696 252.365 102.529 251.449C113.799 238.689 115.969 217.679 102.529 205.271C90.2189 193.9 68.7001 191.65 56.6527 205.282Z" fill="#F49A00"/>
<path d="M101.247 256.909C102.628 262.269 103.845 267.651 104.831 273.099C105.16 274.919 107.407 285.341 105.478 276.243C106.004 278.724 106.07 281.393 106.289 283.919C107.583 298.642 107.1 313.267 105.588 327.935C105.292 330.417 105.368 329.755 105.829 325.972C105.566 327.704 105.281 329.446 104.963 331.167C104.371 334.498 103.702 337.817 102.946 341.104C101.652 346.795 100.118 352.442 98.3636 358C96.8179 362.908 95.0092 367.695 93.2223 372.514C91.1066 378.205 96.5767 364.982 93.025 372.978C92.1699 374.908 91.271 376.827 90.3612 378.735C83.3125 393.58 85.2638 410.388 98.7144 420.854C110.444 429.975 131.053 430.913 141.324 418.307C162.679 392.113 176.239 362.61 180.733 328.961C185.886 290.415 178.99 252.508 161.615 217.866C146.816 232.755 132.017 247.644 117.208 262.534C107.122 255.618 121.921 265.853 116.353 261.673C114.807 259.501 114.84 259.622 116.451 262.015C117.789 264.596 117.931 264.64 116.868 262.125C115.914 259.567 115.925 259.666 116.901 262.412C117.35 263.846 117.701 265.313 117.953 266.802C117.723 265.401 117.493 264 117.262 262.6C117.328 264.574 117.361 266.559 117.35 268.533C117.328 271.246 117.24 273.96 117.065 276.662C116.955 278.283 116.824 279.893 116.659 281.514C116.868 280.07 117.065 278.614 117.273 277.169C116.55 278.592 116.659 280.974 116.287 282.606C115.574 285.716 112.878 292.246 117.767 280.676C111.135 296.348 112.582 316.399 129.408 325.343C143.319 332.744 166.713 330.417 173.805 313.631C180.591 297.606 183.134 280.059 182.159 262.6C180.821 238.843 169.41 219.51 149.963 206.153C138.595 198.356 119.828 201.179 110.63 211.26C100.424 222.443 98.8021 237.354 105.555 250.821C106.629 252.971 107.605 255.166 108.657 257.317C110.554 261.188 107.605 254.868 107.374 254.152C107.824 255.585 108.526 256.997 109.052 258.42C111.431 264.706 113.404 271.158 114.949 277.709C115.804 281.349 117.405 285.97 117.273 289.698C117.427 285.364 116.846 286.113 117.219 290.117C117.427 292.389 117.58 294.661 117.69 296.933C117.887 301.212 117.887 305.502 117.712 309.782C117.624 312.098 117.482 314.414 117.284 316.73C117.197 317.745 116.111 325.211 116.955 320.248C117.712 315.803 116.714 321.274 116.561 322.112C116.21 324.053 115.826 325.994 115.399 327.924C114.631 331.409 113.733 334.872 112.724 338.303C111.946 340.927 111.102 343.541 110.17 346.122C109.633 347.622 106.202 356.147 108.909 349.629C111.376 343.696 109.205 348.813 108.482 350.324C107.111 353.214 105.621 356.059 104.042 358.838C102.025 362.401 99.8435 365.886 97.5195 369.25C96.7302 370.397 95.634 371.544 94.9982 372.779C98.4074 366.184 97.2783 369.845 95.4038 372.15C112.395 385.352 129.387 398.532 146.378 411.722C171.964 357.857 178.738 297.595 163.786 239.56C159.522 223.028 140.371 211.381 123.862 216.752C106.969 222.267 96.6754 239.185 101.247 256.909Z" fill="#F49A00"/>
<path d="M118.348 253.545C120.047 256.048 122.097 262.456 124.256 263.989C122.206 258.905 121.768 257.945 122.952 261.122L123.489 262.776C124.081 264.684 124.278 266.813 124.958 268.666C125.977 271.445 124.509 259.865 124.75 267.066C124.815 268.963 124.969 270.838 124.98 272.735C125.024 276.97 124.772 281.206 124.399 285.419C124.191 287.823 123.928 290.216 123.653 292.621C123.511 293.9 123.347 295.179 123.182 296.47C123.752 292.268 123.763 292.135 123.215 296.062C122.349 301.841 121.527 307.62 120.606 313.399C119.17 322.355 117.624 331.299 115.739 340.166C114.478 346.133 113.086 352.078 111.321 357.912C110.685 360.008 109.896 362.059 109.238 364.154C107.397 370 113.601 355.53 110.148 361.96C108.909 364.276 107.583 366.448 106.224 368.687C105.654 369.625 103.669 372.184 106.783 368.037C110.718 362.787 105.029 369.9 104.141 370.871C101.181 374.08 98.013 377.036 94.6585 379.816C81.5368 390.767 82.5672 414.822 94.6585 425.994C108.602 438.876 126.569 437.674 140.557 425.994C162.964 407.3 172.961 383.632 178.716 355.662C183.693 331.542 187.903 306.616 189.591 282.044C191.06 260.482 186.609 238.645 174.397 220.59C164.86 206.495 145.424 198.863 129.99 208.878C116.046 217.921 108.131 238.435 118.348 253.545Z" fill="#F49A00"/>
<path d="M36.3727 300.528C37.2168 316.631 36.9318 333.505 40.056 349.365C43.0049 364.309 51.4677 378.305 58.1436 391.826C65.7075 407.156 88.5089 412.649 102.551 403.539C118.151 393.414 122.283 375.272 114.193 358.86C111.442 353.291 108.679 347.743 105.961 342.163C105.402 341.027 104.853 339.891 104.305 338.744C102.793 335.402 102.902 335.678 104.645 339.56C103.275 338.391 102.99 333.505 102.65 331.983C104.272 339.273 102.869 330.858 102.793 329.446C102.628 326.546 102.497 323.656 102.343 320.766C101.992 314.006 101.642 307.267 101.291 300.506C100.403 283.478 87.007 267.033 68.8427 267.86C52.0048 268.633 35.419 282.264 36.3727 300.528Z" fill="#F49A00"/>
<path d="M143.013 265.456C137.192 263.791 131.36 262.136 125.539 260.471C123.105 259.776 120.683 259.081 118.249 258.387C116.791 257.968 115.333 257.548 113.875 257.14C116.506 258.442 116.791 258.552 114.741 257.493C104.831 251.714 94.4064 246.696 84.2773 241.325C66.5076 231.895 41.5358 239.472 36.6028 260.835C24.9829 311.105 35.8683 366.25 61.6295 410.498C70.2128 425.233 91.2931 431.773 106.037 422.211C120.792 412.638 126.865 393.315 117.679 377.544C114.588 372.25 111.705 366.857 109.151 361.276C108.613 360.129 108.098 358.971 107.594 357.802C109.151 361.552 109.49 362.324 108.613 360.129C107.758 357.736 106.816 355.375 105.982 352.971C102.957 344.148 100.786 335.126 99.0653 325.972C98.3089 321.969 98.0897 317.579 96.9277 313.697C99.2297 321.417 97.2127 315.715 96.9715 312.958C96.7523 310.333 96.6098 307.697 96.555 305.061C96.4234 299.337 96.84 293.712 97.2127 288.01C97.695 280.654 96.0617 294.165 97.6293 285.606C98.0787 283.114 98.6159 280.654 99.1859 278.195C83.2907 284.702 67.4065 291.209 51.5114 297.705C62.5393 303.561 73.4686 309.671 84.6172 315.285C97.3114 321.682 112.11 324.538 125.736 328.421C142.059 333.075 161.78 322.719 165.661 305.613C169.618 288.253 160.497 270.452 143.013 265.456Z" fill="#F49A00"/>
<path d="M112.724 138.16C144.251 138.16 174.452 110.279 172.994 77.5226C171.536 44.6673 146.51 16.8853 112.724 16.8853C81.1969 16.8853 50.9961 44.7776 52.4541 77.5226C53.912 110.378 78.9277 138.16 112.724 138.16Z" fill="white"/>
<path d="M111.968 109.474C128.137 109.474 143.626 95.169 142.881 78.3829C142.135 61.5306 129.299 47.2812 111.968 47.2812C95.7983 47.2812 80.3088 61.5858 81.0542 78.3829C81.8106 95.2241 94.6473 109.474 111.968 109.474Z" fill="#13120D"/>
<path d="M123.752 79.7394C140.656 79.7394 140.678 53.303 123.752 53.303C106.848 53.303 106.826 79.7394 123.752 79.7394Z" fill="white"/>
<path d="M137.52 155.001C133.804 151.031 128.718 154.075 111.354 154.394C93.025 154.725 87.6426 151.538 83.455 155.95C78.4344 161.243 80.9995 171.269 82.6767 177.787C84.4416 184.647 87.4014 196.172 98.1772 201.179C108.087 205.789 117.821 201.742 119.104 201.179C129.737 196.558 133.443 186.158 136.161 178.559C138.507 171.964 142.618 160.438 137.52 155.001Z" fill="#EE7B0F"/>
<path d="M137.52 155.001C133.804 151.031 128.718 154.075 111.354 154.394C93.025 154.725 87.6426 151.538 83.455 155.95C78.4344 161.243 80.9995 171.269 82.6767 177.787C84.4416 184.647 87.4014 196.172 98.1772 201.179C108.087 205.789 117.821 201.742 119.104 201.179C129.737 196.558 133.443 186.158 136.161 178.559C138.507 171.964 142.618 160.438 137.52 155.001Z" stroke="#EE7B0F" stroke-miterlimit="10"/>
<path d="M84.321 176.618C85.5707 175.272 87.8508 175.339 90.0542 175.702C103.351 177.897 124.673 192.819 121.834 199.679C119.915 204.323 107.714 203.429 106.728 203.352C101.027 202.889 97.1029 200.639 96.1711 200.076C90.6572 196.779 88.1578 192.169 86.7985 189.588C85.7023 187.537 81.5257 179.618 84.321 176.618Z" fill="#FBC141"/>
<path d="M84.321 176.618C85.5707 175.272 87.8508 175.339 90.0542 175.702C103.351 177.897 124.673 192.819 121.834 199.679C119.915 204.323 107.714 203.429 106.728 203.352C101.027 202.889 97.1029 200.639 96.1711 200.076C90.6572 196.779 88.1578 192.169 86.7985 189.588C85.7023 187.537 81.5257 179.618 84.321 176.618Z" stroke="#FBC141" stroke-miterlimit="10"/>
<path d="M63.9314 240.829C71.1335 235.259 76.5817 240.365 109.052 240.829C143.002 241.303 148.746 235.888 156.189 241.832C162.613 246.961 164.038 255.552 156.189 319.509C150.456 366.261 147.277 381.249 136.139 386.102C132.971 387.481 132.412 386.62 108.065 387.106C83.6743 387.591 83.0385 388.473 79.991 387.106C68.2614 381.845 67.3516 364.221 62.9448 317.491C57.4637 259.578 55.1836 247.589 63.9314 240.829Z" fill="#FBC242"/>
<path d="M63.9314 240.829C71.1335 235.259 76.5817 240.365 109.052 240.829C143.002 241.303 148.746 235.888 156.189 241.832C162.613 246.961 164.038 255.552 156.189 319.509C150.456 366.261 147.277 381.249 136.139 386.102C132.971 387.481 132.412 386.62 108.065 387.106C83.6743 387.591 83.0385 388.473 79.991 387.106C68.2614 381.845 67.3516 364.221 62.9448 317.491C57.4637 259.578 55.1836 247.589 63.9314 240.829Z" stroke="#FBC141" stroke-miterlimit="10"/>
</g>
</svg>
